# xmcd
#
# Track frame offsets: 
#        150
#        21328
#        41805
#        64962
#        77189
#        95146
#
# Disc length: 1485 seconds
#
# Revision: 0
# Processed by: cddbd v1.5.2PL0 Copyright (c) Steve Scherf et al.
# Submitted via: ExactAudioCopyFreeDBPlugin 1.0
#
DISCID=5205cb06
DTITLE=Rhett McDaniel - You Don't Know Me
DYEAR=1996
DGENRE=Country
TTITLE0=Hit The Highway
TTITLE1=You Don't Know Me
TTITLE2=You Can't Go Back
TTITLE3=Keyhole To Your Eye
TTITLE4=Get It Right
TTITLE5=I Got The Love
EXTD=
EXTT0=
EXTT1=
EXTT2=
EXTT3=
EXTT4=
EXTT5=
PLAYORDER=
